<svg xmlns="http://www.w3.org/2000/svg" width="35" height="35" viewBox="0 0 35 35"><circle fill="#FFF" cx="17.5" cy="14.919" r="2.567"/><path fill="#FFF" d="M19.718 17.392c-.065-.03-.143-.015-.19.04-.312.354-.715.626-1.173.78-.04.013-.074.04-.094.08l-.617 1.234c-.06.118-.228.118-.286 0l-.617-1.234c-.02-.04-.053-.067-.094-.08-.458-.154-.86-.426-1.172-.78-.048-.054-.125-.07-.19-.04-1.38.657-2.454 1.91-2.933 3.45.47.72 1.086 1.336 1.807 1.806h6.688c.72-.47 1.337-1.087 1.806-1.807-.478-1.54-1.552-2.79-2.932-3.448z"/><path fill="#FFF" d="M31.095 15.555l-3.138-.57c-.267-1.108-.705-2.15-1.286-3.097l1.82-2.625c.198-.287.163-.677-.084-.924l-1.744-1.745c-.248-.247-.636-.282-.924-.083L23.113 8.33c-.946-.582-1.988-1.02-3.097-1.287l-.57-3.138c-.062-.344-.362-.595-.712-.595h-2.467c-.35 0-.65.25-.712.595l-.57 3.138c-1.11.267-2.15.705-3.097 1.286L9.263 6.51c-.287-.2-.676-.164-.924.083L6.595 8.34c-.248.246-.283.636-.084.923l1.818 2.625c-.58.945-1.02 1.988-1.286 3.097l-3.138.57c-.344.062-.594.362-.594.712v2.467c0 .35.25.65.594.712l3.138.57c.266 1.108.705 2.15 1.286 3.097l-1.818 2.625c-.2.287-.164.677.083.924l1.744 1.744c.247.247.635.282.923.083l2.625-1.818c.946.58 1.988 1.02 3.097 1.286l.57 3.138c.062.344.362.595.712.595h2.467c.35 0 .65-.25.712-.594l.57-3.138c1.11-.267 2.15-.706 3.097-1.286l2.625 1.817c.288.198.676.163.924-.084l1.744-1.744c.247-.247.282-.637.083-.924l-1.82-2.625c.582-.946 1.02-1.988 1.287-3.098l3.138-.57c.344-.06.594-.36.594-.71v-2.468c0-.35-.25-.65-.595-.712zM17.5 25.04c-4.158 0-7.54-3.383-7.54-7.54s3.382-7.54 7.54-7.54 7.54 3.383 7.54 7.54-3.382 7.54-7.54 7.54z"/></svg>