<svg xmlns="http://www.w3.org/2000/svg" width="35" height="35" viewBox="0 0 35 35"><g fill="#FFF"><circle cx="10.624" cy="11.679" r="2.302"/><circle cx="22.418" cy="17.368" r="2.302"/><circle cx="15.511" cy="23.057" r="2.302"/><path d="M6.02 12.574h1.734c-.09-.29-.136-.59-.136-.896 0-.307.045-.607.136-.896H6.02c-.495 0-.896.4-.896.896 0 .495.4.896.896.896zM28.98 10.783H13.493c.09.29.136.588.136.896 0 .306-.045.606-.136.895H28.98c.494 0 .895-.4.895-.896s-.4-.897-.896-.897zM6.02 18.264h13.527c-.09-.29-.136-.588-.136-.896s.046-.606.137-.896H6.02c-.495 0-.896.4-.896.896 0 .495.4.896.896.896zM28.98 16.473h-3.693c.09.29.136.588.136.896s-.045.605-.136.895h3.692c.494 0 .895-.4.895-.896s-.4-.897-.896-.897zM6.02 22.162c-.495 0-.896.4-.896.896s.4.896.896.896h6.62c-.09-.29-.136-.588-.136-.896 0-.307.046-.607.136-.896H6.02zM28.98 22.162h-10.6c.09.29.136.59.136.896 0 .307-.045.606-.136.896h10.6c.494 0 .895-.4.895-.896s-.4-.896-.896-.896z"/></g></svg>