<svg xmlns="http://www.w3.org/2000/svg" width="35" height="35" viewBox="0 0 35 35"><path fill="#FFF" d="M16.644 16.58l-7.59-1.29c-.958-.162-1.6-1.07-1.44-2.027.164-.958 1.072-1.602 2.028-1.44l7.026 1.194 7.713-1.197c.96-.148 1.86.508 2.008 1.468s-.508 1.858-1.467 2.007l-8.276 1.284z"/><path fill="#FFF" d="M17 24.31c-.97 0-2-.786-2-1.757v-7.445c0-.97 1.03-1.758 2-1.758s2 .787 2 1.758v7.445c0 .97-1.03 1.758-2 1.758z"/><path fill="#FFF" d="M20.62 30.375c-.667 0-1.306-.382-1.6-1.03l-3.516-7.717c-.402-.883-.013-1.926.87-2.33.885-.402 1.926-.01 2.33.872l3.514 7.718c.403.883.013 1.926-.87 2.328-.237.108-.485.16-.728.16z"/><path fill="#FFF" d="M13.173 30.375c-.244 0-.49-.05-.728-.16-.883-.4-1.273-1.444-.87-2.327l3.515-7.718c.402-.883 1.443-1.273 2.328-.87.884.4 1.273 1.444.87 2.328l-3.514 7.718c-.295.646-.933 1.03-1.6 1.03z"/><circle fill="#FFF" cx="16.863" cy="8.284" r="3.171"/></svg>