<svg xmlns="http://www.w3.org/2000/svg" width="35" height="35" viewBox="0 0 35 35"><path fill="#FFF" d="M24.1 26.34L21.003 19h-7.82l-.67-11.184c-.055-.956.674-1.66 1.63-1.715.96-.054 1.776.73 1.832 1.687l.48 8.213h6.818l2.71 6.216 1-.357c.9-.323 1.895.145 2.217 1.046s-.147 1.777-1.05 2.1L24.1 26.34z"/><path fill="#FFF" d="M20.943 14h-6.32c-.96 0-1.734-.78-1.734-1.5 0-.718.774-1.5 1.732-1.5h6.32c.958 0 1.735.782 1.735 1.5 0 .72-.777 1.5-1.734 1.5z"/><circle fill="#FFF" cx="14.835" cy="6.336" r="2.835"/><path fill="#FFF" d="M21.37 21.76c-.55 2.425-2.68 4.252-5.27 4.252-3.012 0-5.457-2.447-5.457-5.458 0-1.43.568-2.714 1.475-3.683l-.196-3.033-1.78-1.232c-.212-.144-.487-.12-.67.06L8.21 13.928c-.18.178-.205.46-.06.667l1.313 1.9c-.42.687-.736 1.438-.93 2.24l-2.186.415c-.25.042-.347.26-.347.514v1.783c0 .253.098.47.348.516l2.23.413c.19.803.485 1.555.906 2.24l-1.324 1.9c-.146.208-.124.49.054.668l1.26 1.26c.182.18.456.207.667.063l1.9-1.316c.686.422 1.435.74 2.237.933l.414 2.36c.045.247.263.517.516.517h1.784c.256 0 .472-.27.517-.518l.41-2.314c.806-.192 1.557-.533 2.242-.955l1.898 1.305c.21.144.49.11.666-.067l.994-.99-2.347-5.7z"/></svg>